<mxfile host="app.diagrams.net" modified="2024-02-13T10:29:14.671Z" agent="Mozilla/5.0 (Windows NT 10.0; Win64; x64) AppleWebKit/537.36 (KHTML, like Gecko) Chrome/121.0.0.0 Safari/537.36" etag="_fu3zdjkPxyBT6zF4TMD" version="23.1.2" type="device">
  <diagram name="Pagina-1" id="BoKzZkv2HJ6Sq_2Y38M6">
    <mxGraphModel dx="2249" dy="730" grid="1" gridSize="10" guides="1" tooltips="1" connect="1" arrows="1" fold="1" page="1" pageScale="1" pageWidth="827" pageHeight="1169" math="0" shadow="0">
      <root>
        <mxCell id="0" />
        <mxCell id="1" parent="0" />
        <mxCell id="5FSWwVK-qjavSyTaj8by-1" value="" style="whiteSpace=wrap;html=1;aspect=fixed;" vertex="1" parent="1">
          <mxGeometry x="320" y="290" width="130" height="130" as="geometry" />
        </mxCell>
        <mxCell id="5FSWwVK-qjavSyTaj8by-2" value="" style="endArrow=classic;html=1;rounded=0;" edge="1" parent="1" source="5FSWwVK-qjavSyTaj8by-35">
          <mxGeometry width="50" height="50" relative="1" as="geometry">
            <mxPoint x="760" y="350" as="sourcePoint" />
            <mxPoint x="450" y="350" as="targetPoint" />
          </mxGeometry>
        </mxCell>
        <mxCell id="5FSWwVK-qjavSyTaj8by-4" value="RequestSession&lt;br&gt;- userId (string)&lt;br&gt;- ip_addres" style="text;html=1;align=left;verticalAlign=middle;resizable=0;points=[];autosize=1;strokeColor=none;fillColor=none;" vertex="1" parent="1">
          <mxGeometry x="480" y="290" width="110" height="60" as="geometry" />
        </mxCell>
        <mxCell id="5FSWwVK-qjavSyTaj8by-5" value="" style="endArrow=classic;html=1;rounded=0;exitX=1;exitY=0.615;exitDx=0;exitDy=0;exitPerimeter=0;" edge="1" parent="1" source="5FSWwVK-qjavSyTaj8by-1" target="5FSWwVK-qjavSyTaj8by-35">
          <mxGeometry width="50" height="50" relative="1" as="geometry">
            <mxPoint x="390" y="420" as="sourcePoint" />
            <mxPoint x="760" y="370" as="targetPoint" />
          </mxGeometry>
        </mxCell>
        <mxCell id="5FSWwVK-qjavSyTaj8by-6" value="SessionId (GUID)" style="text;html=1;align=left;verticalAlign=middle;resizable=0;points=[];autosize=1;strokeColor=none;fillColor=none;" vertex="1" parent="1">
          <mxGeometry x="480" y="370" width="120" height="30" as="geometry" />
        </mxCell>
        <mxCell id="5FSWwVK-qjavSyTaj8by-7" value="&lt;font style=&quot;font-size: 19px;&quot;&gt;1. RequestSession&lt;/font&gt;" style="text;html=1;strokeColor=none;fillColor=none;align=center;verticalAlign=middle;whiteSpace=wrap;rounded=0;" vertex="1" parent="1">
          <mxGeometry x="210" y="240" width="380" height="30" as="geometry" />
        </mxCell>
        <mxCell id="5FSWwVK-qjavSyTaj8by-10" value="&lt;font style=&quot;font-size: 33px;&quot;&gt;&lt;b&gt;SessionManagement&lt;/b&gt;&lt;/font&gt;" style="text;html=1;strokeColor=none;fillColor=none;align=center;verticalAlign=middle;whiteSpace=wrap;rounded=0;" vertex="1" parent="1">
          <mxGeometry x="170" y="130" width="380" height="30" as="geometry" />
        </mxCell>
        <mxCell id="5FSWwVK-qjavSyTaj8by-11" value="&lt;font style=&quot;font-size: 19px;&quot;&gt;Communication From launcher&amp;nbsp;&lt;/font&gt;" style="text;html=1;strokeColor=none;fillColor=none;align=center;verticalAlign=middle;whiteSpace=wrap;rounded=0;" vertex="1" parent="1">
          <mxGeometry x="580" y="170" width="380" height="30" as="geometry" />
        </mxCell>
        <mxCell id="5FSWwVK-qjavSyTaj8by-12" value="" style="whiteSpace=wrap;html=1;aspect=fixed;" vertex="1" parent="1">
          <mxGeometry x="320" y="530" width="130" height="130" as="geometry" />
        </mxCell>
        <mxCell id="5FSWwVK-qjavSyTaj8by-13" value="" style="endArrow=classic;html=1;rounded=0;" edge="1" parent="1" source="5FSWwVK-qjavSyTaj8by-34">
          <mxGeometry width="50" height="50" relative="1" as="geometry">
            <mxPoint x="580" y="590" as="sourcePoint" />
            <mxPoint x="450" y="590" as="targetPoint" />
          </mxGeometry>
        </mxCell>
        <mxCell id="5FSWwVK-qjavSyTaj8by-14" value="GetSessionStatus&lt;br&gt;- SessionId (GUID)" style="text;html=1;align=left;verticalAlign=middle;resizable=0;points=[];autosize=1;strokeColor=none;fillColor=none;" vertex="1" parent="1">
          <mxGeometry x="480" y="540" width="120" height="40" as="geometry" />
        </mxCell>
        <mxCell id="5FSWwVK-qjavSyTaj8by-15" value="" style="endArrow=classic;html=1;rounded=0;exitX=1;exitY=0.615;exitDx=0;exitDy=0;exitPerimeter=0;" edge="1" parent="1" source="5FSWwVK-qjavSyTaj8by-12" target="5FSWwVK-qjavSyTaj8by-34">
          <mxGeometry width="50" height="50" relative="1" as="geometry">
            <mxPoint x="390" y="660" as="sourcePoint" />
            <mxPoint x="580" y="610" as="targetPoint" />
          </mxGeometry>
        </mxCell>
        <mxCell id="5FSWwVK-qjavSyTaj8by-16" value="SessionStatus (Opened, Closed, Approved, &lt;br&gt;&amp;nbsp; &amp;nbsp; &amp;nbsp; &amp;nbsp; &amp;nbsp; &amp;nbsp; &amp;nbsp; &amp;nbsp; &amp;nbsp; &amp;nbsp; &amp;nbsp; &amp;nbsp; &amp;nbsp;Rejected, TimedOut, Failed)" style="text;html=1;align=left;verticalAlign=middle;resizable=0;points=[];autosize=1;strokeColor=none;fillColor=none;" vertex="1" parent="1">
          <mxGeometry x="480" y="605" width="260" height="40" as="geometry" />
        </mxCell>
        <mxCell id="5FSWwVK-qjavSyTaj8by-17" value="&lt;font style=&quot;font-size: 19px;&quot;&gt;2.&amp;nbsp; GetSessionStatus&lt;/font&gt;" style="text;html=1;strokeColor=none;fillColor=none;align=center;verticalAlign=middle;whiteSpace=wrap;rounded=0;" vertex="1" parent="1">
          <mxGeometry x="224" y="480" width="380" height="30" as="geometry" />
        </mxCell>
        <mxCell id="5FSWwVK-qjavSyTaj8by-18" value="" style="whiteSpace=wrap;html=1;aspect=fixed;" vertex="1" parent="1">
          <mxGeometry x="320" y="770" width="130" height="130" as="geometry" />
        </mxCell>
        <mxCell id="5FSWwVK-qjavSyTaj8by-19" value="" style="endArrow=classic;html=1;rounded=0;" edge="1" parent="1" source="5FSWwVK-qjavSyTaj8by-36">
          <mxGeometry width="50" height="50" relative="1" as="geometry">
            <mxPoint x="760" y="830" as="sourcePoint" />
            <mxPoint x="450" y="830" as="targetPoint" />
          </mxGeometry>
        </mxCell>
        <mxCell id="5FSWwVK-qjavSyTaj8by-20" value="SetSessionStatus&lt;br&gt;- SessionId (GUID)&lt;br&gt;- Status: Opened, Closed, Approved, &lt;br&gt;&amp;nbsp; &amp;nbsp;Rejected, Failed, TimedOut)" style="text;html=1;align=left;verticalAlign=middle;resizable=0;points=[];autosize=1;strokeColor=none;fillColor=none;" vertex="1" parent="1">
          <mxGeometry x="477" y="765" width="220" height="70" as="geometry" />
        </mxCell>
        <mxCell id="5FSWwVK-qjavSyTaj8by-21" value="" style="endArrow=classic;html=1;rounded=0;exitX=1;exitY=0.615;exitDx=0;exitDy=0;exitPerimeter=0;" edge="1" parent="1" source="5FSWwVK-qjavSyTaj8by-18" target="5FSWwVK-qjavSyTaj8by-36">
          <mxGeometry width="50" height="50" relative="1" as="geometry">
            <mxPoint x="390" y="900" as="sourcePoint" />
            <mxPoint x="580" y="850" as="targetPoint" />
          </mxGeometry>
        </mxCell>
        <mxCell id="5FSWwVK-qjavSyTaj8by-22" value="Ok, Nok" style="text;html=1;align=left;verticalAlign=middle;resizable=0;points=[];autosize=1;strokeColor=none;fillColor=none;" vertex="1" parent="1">
          <mxGeometry x="480" y="850" width="70" height="30" as="geometry" />
        </mxCell>
        <mxCell id="5FSWwVK-qjavSyTaj8by-23" value="&lt;font style=&quot;font-size: 19px;&quot;&gt;3. SetSessionStatus&lt;/font&gt;" style="text;html=1;strokeColor=none;fillColor=none;align=center;verticalAlign=middle;whiteSpace=wrap;rounded=0;" vertex="1" parent="1">
          <mxGeometry x="220" y="710" width="380" height="30" as="geometry" />
        </mxCell>
        <mxCell id="5FSWwVK-qjavSyTaj8by-26" value="&lt;font style=&quot;font-size: 19px;&quot;&gt;Communication From RSS&lt;/font&gt;" style="text;html=1;strokeColor=none;fillColor=none;align=center;verticalAlign=middle;whiteSpace=wrap;rounded=0;" vertex="1" parent="1">
          <mxGeometry x="-143" y="170" width="380" height="30" as="geometry" />
        </mxCell>
        <mxCell id="5FSWwVK-qjavSyTaj8by-31" value="&lt;font style=&quot;font-size: 19px;&quot;&gt;gRPC&lt;/font&gt;" style="text;html=1;strokeColor=none;fillColor=none;align=center;verticalAlign=middle;whiteSpace=wrap;rounded=0;" vertex="1" parent="1">
          <mxGeometry x="-195" y="230" width="380" height="30" as="geometry" />
        </mxCell>
        <mxCell id="5FSWwVK-qjavSyTaj8by-32" value="&lt;font style=&quot;font-size: 19px;&quot;&gt;WebApi&lt;/font&gt;" style="text;html=1;strokeColor=none;fillColor=none;align=center;verticalAlign=middle;whiteSpace=wrap;rounded=0;" vertex="1" parent="1">
          <mxGeometry x="580" y="230" width="380" height="30" as="geometry" />
        </mxCell>
        <mxCell id="5FSWwVK-qjavSyTaj8by-33" value="" style="html=1;points=[[0,0,0,0,5],[0,1,0,0,-5],[1,0,0,0,5],[1,1,0,0,-5]];perimeter=orthogonalPerimeter;outlineConnect=0;targetShapes=umlLifeline;portConstraint=eastwest;newEdgeStyle={&quot;curved&quot;:0,&quot;rounded&quot;:0};" vertex="1" parent="1">
          <mxGeometry y="1015" width="10" height="120" as="geometry" />
        </mxCell>
        <mxCell id="5FSWwVK-qjavSyTaj8by-34" value="" style="html=1;points=[[0,0,0,0,5],[0,1,0,0,-5],[1,0,0,0,5],[1,1,0,0,-5]];perimeter=orthogonalPerimeter;outlineConnect=0;targetShapes=umlLifeline;portConstraint=eastwest;newEdgeStyle={&quot;curved&quot;:0,&quot;rounded&quot;:0};" vertex="1" parent="1">
          <mxGeometry x="765" y="520" width="10" height="180" as="geometry" />
        </mxCell>
        <mxCell id="5FSWwVK-qjavSyTaj8by-35" value="" style="html=1;points=[[0,0,0,0,5],[0,1,0,0,-5],[1,0,0,0,5],[1,1,0,0,-5]];perimeter=orthogonalPerimeter;outlineConnect=0;targetShapes=umlLifeline;portConstraint=eastwest;newEdgeStyle={&quot;curved&quot;:0,&quot;rounded&quot;:0};" vertex="1" parent="1">
          <mxGeometry x="765" y="265" width="10" height="180" as="geometry" />
        </mxCell>
        <mxCell id="5FSWwVK-qjavSyTaj8by-36" value="" style="html=1;points=[[0,0,0,0,5],[0,1,0,0,-5],[1,0,0,0,5],[1,1,0,0,-5]];perimeter=orthogonalPerimeter;outlineConnect=0;targetShapes=umlLifeline;portConstraint=eastwest;newEdgeStyle={&quot;curved&quot;:0,&quot;rounded&quot;:0};" vertex="1" parent="1">
          <mxGeometry x="765" y="760" width="10" height="180" as="geometry" />
        </mxCell>
        <mxCell id="5FSWwVK-qjavSyTaj8by-37" value="" style="whiteSpace=wrap;html=1;aspect=fixed;" vertex="1" parent="1">
          <mxGeometry x="320" y="1020" width="130" height="130" as="geometry" />
        </mxCell>
        <mxCell id="5FSWwVK-qjavSyTaj8by-38" value="" style="endArrow=classic;html=1;rounded=0;" edge="1" parent="1">
          <mxGeometry width="50" height="50" relative="1" as="geometry">
            <mxPoint x="765" y="1069" as="sourcePoint" />
            <mxPoint x="450" y="1069" as="targetPoint" />
          </mxGeometry>
        </mxCell>
        <mxCell id="5FSWwVK-qjavSyTaj8by-39" value="NotifySessionStatus&lt;br&gt;- SessionId (GUID)&lt;br&gt;- Status: Opened, Closed, Approved, &lt;br&gt;&amp;nbsp; &amp;nbsp;Rejected, Failed, TimedOut)" style="text;html=1;align=left;verticalAlign=middle;resizable=0;points=[];autosize=1;strokeColor=none;fillColor=none;" vertex="1" parent="1">
          <mxGeometry x="480" y="1004" width="220" height="70" as="geometry" />
        </mxCell>
        <mxCell id="5FSWwVK-qjavSyTaj8by-40" value="" style="endArrow=classic;html=1;rounded=0;exitX=1;exitY=0.615;exitDx=0;exitDy=0;exitPerimeter=0;" edge="1" parent="1">
          <mxGeometry width="50" height="50" relative="1" as="geometry">
            <mxPoint x="450" y="1130.95" as="sourcePoint" />
            <mxPoint x="765" y="1130.95" as="targetPoint" />
          </mxGeometry>
        </mxCell>
        <mxCell id="5FSWwVK-qjavSyTaj8by-41" value="Ok, Nok" style="text;html=1;align=left;verticalAlign=middle;resizable=0;points=[];autosize=1;strokeColor=none;fillColor=none;" vertex="1" parent="1">
          <mxGeometry x="490" y="1130" width="70" height="30" as="geometry" />
        </mxCell>
        <mxCell id="5FSWwVK-qjavSyTaj8by-42" value="&lt;font style=&quot;font-size: 19px;&quot;&gt;4. NotifySessionStatus&lt;/font&gt;" style="text;html=1;strokeColor=none;fillColor=none;align=center;verticalAlign=middle;whiteSpace=wrap;rounded=0;" vertex="1" parent="1">
          <mxGeometry x="220" y="960" width="380" height="30" as="geometry" />
        </mxCell>
        <mxCell id="5FSWwVK-qjavSyTaj8by-43" value="" style="endArrow=classic;html=1;rounded=0;" edge="1" parent="1">
          <mxGeometry width="50" height="50" relative="1" as="geometry">
            <mxPoint x="320" y="1088.5" as="sourcePoint" />
            <mxPoint x="10" y="1088.5" as="targetPoint" />
          </mxGeometry>
        </mxCell>
        <mxCell id="5FSWwVK-qjavSyTaj8by-44" value="NotifySessionStatus&lt;br&gt;- SessionId (GUID)&lt;br&gt;- Status: Opened, Closed, Approved, &lt;br&gt;&amp;nbsp; Rejected, Failed, TimedOut)" style="text;html=1;align=left;verticalAlign=middle;resizable=0;points=[];autosize=1;strokeColor=none;fillColor=none;" vertex="1" parent="1">
          <mxGeometry x="120" y="1022" width="220" height="70" as="geometry" />
        </mxCell>
        <mxCell id="5FSWwVK-qjavSyTaj8by-45" value="" style="endArrow=classic;html=1;rounded=0;" edge="1" parent="1" source="5FSWwVK-qjavSyTaj8by-33">
          <mxGeometry width="50" height="50" relative="1" as="geometry">
            <mxPoint x="130" y="1110" as="sourcePoint" />
            <mxPoint x="320" y="1110" as="targetPoint" />
          </mxGeometry>
        </mxCell>
        <mxCell id="5FSWwVK-qjavSyTaj8by-46" value="Ok, Nok" style="text;html=1;align=left;verticalAlign=middle;resizable=0;points=[];autosize=1;strokeColor=none;fillColor=none;" vertex="1" parent="1">
          <mxGeometry x="130" y="1105" width="70" height="30" as="geometry" />
        </mxCell>
        <mxCell id="5FSWwVK-qjavSyTaj8by-47" value="" style="html=1;points=[[0,0,0,0,5],[0,1,0,0,-5],[1,0,0,0,5],[1,1,0,0,-5]];perimeter=orthogonalPerimeter;outlineConnect=0;targetShapes=umlLifeline;portConstraint=eastwest;newEdgeStyle={&quot;curved&quot;:0,&quot;rounded&quot;:0};" vertex="1" parent="1">
          <mxGeometry x="765" y="1010" width="10" height="180" as="geometry" />
        </mxCell>
        <mxCell id="5FSWwVK-qjavSyTaj8by-48" value="" style="whiteSpace=wrap;html=1;aspect=fixed;" vertex="1" parent="1">
          <mxGeometry x="308" y="1300" width="130" height="130" as="geometry" />
        </mxCell>
        <mxCell id="5FSWwVK-qjavSyTaj8by-53" value="&lt;font style=&quot;font-size: 19px;&quot;&gt;5.&amp;nbsp; GetSessionStatus&lt;/font&gt;" style="text;html=1;strokeColor=none;fillColor=none;align=center;verticalAlign=middle;whiteSpace=wrap;rounded=0;" vertex="1" parent="1">
          <mxGeometry x="212" y="1250" width="380" height="30" as="geometry" />
        </mxCell>
        <mxCell id="5FSWwVK-qjavSyTaj8by-54" value="" style="whiteSpace=wrap;html=1;aspect=fixed;" vertex="1" parent="1">
          <mxGeometry x="308" y="1540" width="130" height="130" as="geometry" />
        </mxCell>
        <mxCell id="5FSWwVK-qjavSyTaj8by-59" value="&lt;font style=&quot;font-size: 19px;&quot;&gt;6. SetSessionStatus&lt;/font&gt;" style="text;html=1;strokeColor=none;fillColor=none;align=center;verticalAlign=middle;whiteSpace=wrap;rounded=0;" vertex="1" parent="1">
          <mxGeometry x="208" y="1480" width="380" height="30" as="geometry" />
        </mxCell>
        <mxCell id="5FSWwVK-qjavSyTaj8by-60" value="" style="endArrow=classic;html=1;rounded=0;" edge="1" parent="1">
          <mxGeometry width="50" height="50" relative="1" as="geometry">
            <mxPoint x="308" y="1612.5" as="sourcePoint" />
            <mxPoint x="10" y="1612.5" as="targetPoint" />
          </mxGeometry>
        </mxCell>
        <mxCell id="5FSWwVK-qjavSyTaj8by-61" value="SetSessionStatus&lt;br&gt;- SessionId (GUID)&lt;br&gt;- Status: Opened, Closed, Approved, &lt;br&gt;&amp;nbsp; Rejected, Failed, TimedOut)" style="text;html=1;align=left;verticalAlign=middle;resizable=0;points=[];autosize=1;strokeColor=none;fillColor=none;" vertex="1" parent="1">
          <mxGeometry x="108" y="1515" width="220" height="70" as="geometry" />
        </mxCell>
        <mxCell id="5FSWwVK-qjavSyTaj8by-62" value="" style="endArrow=classic;html=1;rounded=0;" edge="1" parent="1">
          <mxGeometry width="50" height="50" relative="1" as="geometry">
            <mxPoint x="10" y="1581.5" as="sourcePoint" />
            <mxPoint x="308" y="1581.5" as="targetPoint" />
          </mxGeometry>
        </mxCell>
        <mxCell id="5FSWwVK-qjavSyTaj8by-63" value="Ok, Nok" style="text;html=1;align=left;verticalAlign=middle;resizable=0;points=[];autosize=1;strokeColor=none;fillColor=none;" vertex="1" parent="1">
          <mxGeometry x="120" y="1610" width="70" height="30" as="geometry" />
        </mxCell>
        <mxCell id="5FSWwVK-qjavSyTaj8by-66" value="" style="html=1;points=[[0,0,0,0,5],[0,1,0,0,-5],[1,0,0,0,5],[1,1,0,0,-5]];perimeter=orthogonalPerimeter;outlineConnect=0;targetShapes=umlLifeline;portConstraint=eastwest;newEdgeStyle={&quot;curved&quot;:0,&quot;rounded&quot;:0};" vertex="1" parent="1">
          <mxGeometry y="1520" width="10" height="120" as="geometry" />
        </mxCell>
        <mxCell id="5FSWwVK-qjavSyTaj8by-69" value="" style="endArrow=classic;html=1;rounded=0;" edge="1" parent="1">
          <mxGeometry width="50" height="50" relative="1" as="geometry">
            <mxPoint x="308" y="1394.5" as="sourcePoint" />
            <mxPoint x="10" y="1394.5" as="targetPoint" />
          </mxGeometry>
        </mxCell>
        <mxCell id="5FSWwVK-qjavSyTaj8by-70" value="" style="endArrow=classic;html=1;rounded=0;" edge="1" parent="1">
          <mxGeometry width="50" height="50" relative="1" as="geometry">
            <mxPoint x="10" y="1363.5" as="sourcePoint" />
            <mxPoint x="308" y="1363.5" as="targetPoint" />
          </mxGeometry>
        </mxCell>
        <mxCell id="5FSWwVK-qjavSyTaj8by-71" value="Ok, Nok" style="text;html=1;align=left;verticalAlign=middle;resizable=0;points=[];autosize=1;strokeColor=none;fillColor=none;" vertex="1" parent="1">
          <mxGeometry x="120" y="1390" width="70" height="30" as="geometry" />
        </mxCell>
        <mxCell id="5FSWwVK-qjavSyTaj8by-72" value="" style="html=1;points=[[0,0,0,0,5],[0,1,0,0,-5],[1,0,0,0,5],[1,1,0,0,-5]];perimeter=orthogonalPerimeter;outlineConnect=0;targetShapes=umlLifeline;portConstraint=eastwest;newEdgeStyle={&quot;curved&quot;:0,&quot;rounded&quot;:0};" vertex="1" parent="1">
          <mxGeometry y="1300" width="10" height="120" as="geometry" />
        </mxCell>
        <mxCell id="5FSWwVK-qjavSyTaj8by-74" value="GetSessionStatus&lt;br&gt;- SessionId (GUID)&lt;br&gt;- Status: Opened, Closed, Approved, &lt;br&gt;&amp;nbsp; Rejected, Failed, TimedOut)" style="text;html=1;align=left;verticalAlign=middle;resizable=0;points=[];autosize=1;strokeColor=none;fillColor=none;" vertex="1" parent="1">
          <mxGeometry x="108" y="1298" width="220" height="70" as="geometry" />
        </mxCell>
        <mxCell id="5FSWwVK-qjavSyTaj8by-75" value="" style="whiteSpace=wrap;html=1;aspect=fixed;" vertex="1" parent="1">
          <mxGeometry x="308" y="1815" width="130" height="130" as="geometry" />
        </mxCell>
        <mxCell id="5FSWwVK-qjavSyTaj8by-76" value="" style="endArrow=classic;html=1;rounded=0;" edge="1" parent="1">
          <mxGeometry width="50" height="50" relative="1" as="geometry">
            <mxPoint x="308" y="1891.5" as="sourcePoint" />
            <mxPoint x="10" y="1891.5" as="targetPoint" />
          </mxGeometry>
        </mxCell>
        <mxCell id="5FSWwVK-qjavSyTaj8by-77" value="GetAllowList&lt;br&gt;- SessionId (GUID)" style="text;html=1;align=left;verticalAlign=middle;resizable=0;points=[];autosize=1;strokeColor=none;fillColor=none;" vertex="1" parent="1">
          <mxGeometry x="120" y="1820" width="120" height="40" as="geometry" />
        </mxCell>
        <mxCell id="5FSWwVK-qjavSyTaj8by-78" value="" style="endArrow=classic;html=1;rounded=0;" edge="1" parent="1">
          <mxGeometry width="50" height="50" relative="1" as="geometry">
            <mxPoint x="10" y="1858.5" as="sourcePoint" />
            <mxPoint x="308" y="1858.5" as="targetPoint" />
          </mxGeometry>
        </mxCell>
        <mxCell id="5FSWwVK-qjavSyTaj8by-79" value="- (Attended, Unattended)" style="text;html=1;align=left;verticalAlign=middle;resizable=0;points=[];autosize=1;strokeColor=none;fillColor=none;" vertex="1" parent="1">
          <mxGeometry x="120" y="1885" width="160" height="30" as="geometry" />
        </mxCell>
        <mxCell id="5FSWwVK-qjavSyTaj8by-80" value="" style="html=1;points=[[0,0,0,0,5],[0,1,0,0,-5],[1,0,0,0,5],[1,1,0,0,-5]];perimeter=orthogonalPerimeter;outlineConnect=0;targetShapes=umlLifeline;portConstraint=eastwest;newEdgeStyle={&quot;curved&quot;:0,&quot;rounded&quot;:0};" vertex="1" parent="1">
          <mxGeometry y="1795" width="10" height="120" as="geometry" />
        </mxCell>
        <mxCell id="5FSWwVK-qjavSyTaj8by-81" value="&lt;font style=&quot;font-size: 19px;&quot;&gt;7. GetAllowList&lt;/font&gt;" style="text;html=1;strokeColor=none;fillColor=none;align=center;verticalAlign=middle;whiteSpace=wrap;rounded=0;" vertex="1" parent="1">
          <mxGeometry x="180" y="1739" width="380" height="30" as="geometry" />
        </mxCell>
        <mxCell id="5FSWwVK-qjavSyTaj8by-82" value="" style="whiteSpace=wrap;html=1;aspect=fixed;" vertex="1" parent="1">
          <mxGeometry x="307" y="2050" width="130" height="130" as="geometry" />
        </mxCell>
        <mxCell id="5FSWwVK-qjavSyTaj8by-83" value="" style="endArrow=classic;html=1;rounded=0;" edge="1" parent="1">
          <mxGeometry width="50" height="50" relative="1" as="geometry">
            <mxPoint x="735" y="2089.5" as="sourcePoint" />
            <mxPoint x="437" y="2089.5" as="targetPoint" />
          </mxGeometry>
        </mxCell>
        <mxCell id="5FSWwVK-qjavSyTaj8by-84" value="SetAllowList&lt;br&gt;- SessionId (GUID)&lt;br&gt;- (Atended, UnAttended)" style="text;html=1;align=left;verticalAlign=middle;resizable=0;points=[];autosize=1;strokeColor=none;fillColor=none;" vertex="1" parent="1">
          <mxGeometry x="484" y="2030" width="150" height="60" as="geometry" />
        </mxCell>
        <mxCell id="5FSWwVK-qjavSyTaj8by-85" value="" style="endArrow=classic;html=1;rounded=0;" edge="1" parent="1">
          <mxGeometry width="50" height="50" relative="1" as="geometry">
            <mxPoint x="438" y="2120" as="sourcePoint" />
            <mxPoint x="736" y="2120" as="targetPoint" />
          </mxGeometry>
        </mxCell>
        <mxCell id="5FSWwVK-qjavSyTaj8by-87" value="" style="html=1;points=[[0,0,0,0,5],[0,1,0,0,-5],[1,0,0,0,5],[1,1,0,0,-5]];perimeter=orthogonalPerimeter;outlineConnect=0;targetShapes=umlLifeline;portConstraint=eastwest;newEdgeStyle={&quot;curved&quot;:0,&quot;rounded&quot;:0};" vertex="1" parent="1">
          <mxGeometry x="736" y="2050" width="10" height="120" as="geometry" />
        </mxCell>
        <mxCell id="5FSWwVK-qjavSyTaj8by-88" value="&lt;font style=&quot;font-size: 19px;&quot;&gt;8. SetAllowList&lt;/font&gt;" style="text;html=1;strokeColor=none;fillColor=none;align=center;verticalAlign=middle;whiteSpace=wrap;rounded=0;" vertex="1" parent="1">
          <mxGeometry x="179" y="2000" width="380" height="30" as="geometry" />
        </mxCell>
        <mxCell id="5FSWwVK-qjavSyTaj8by-89" value="Ok, Nok" style="text;html=1;align=left;verticalAlign=middle;resizable=0;points=[];autosize=1;strokeColor=none;fillColor=none;" vertex="1" parent="1">
          <mxGeometry x="489" y="2122" width="70" height="30" as="geometry" />
        </mxCell>
        <mxCell id="5FSWwVK-qjavSyTaj8by-90" value="Text" style="text;html=1;align=center;verticalAlign=middle;resizable=0;points=[];autosize=1;strokeColor=none;fillColor=none;" vertex="1" parent="1">
          <mxGeometry x="235" y="1128" width="50" height="30" as="geometry" />
        </mxCell>
      </root>
    </mxGraphModel>
  </diagram>
</mxfile>
